<?xml version="1.0" encoding="UTF-8"?>
<svg width="40px" height="40px" viewBox="0 0 40 40" version="1.1" xmlns="http://www.w3.org/2000/svg" xmlns:xlink="http://www.w3.org/1999/xlink">
    <title>Group 7</title>
    <defs>
        <path d="M6,0 L34,0 C37.3137085,-6.08718376e-16 40,2.6862915 40,6 L40,34 C40,37.3137085 37.3137085,40 34,40 L6,40 C2.6862915,40 4.05812251e-16,37.3137085 0,34 L0,6 C-4.05812251e-16,2.6862915 2.6862915,6.08718376e-16 6,0 Z" id="path-1"></path>
        <linearGradient x1="14.0150666%" y1="52.359096%" x2="14.0150666%" y2="9.64564732%" id="linearGradient-3">
            <stop stop-color="#8C84D2" offset="0%"></stop>
            <stop stop-color="#675EB8" offset="100%"></stop>
        </linearGradient>
        <linearGradient x1="64.3620161%" y1="100%" x2="22.3462892%" y2="48.2833426%" id="linearGradient-4">
            <stop stop-color="#8178CE" offset="0%"></stop>
            <stop stop-color="#6660A5" offset="100%"></stop>
        </linearGradient>
        <linearGradient x1="50%" y1="0%" x2="50%" y2="100%" id="linearGradient-5">
            <stop stop-color="#918AD6" offset="0%"></stop>
            <stop stop-color="#675EB8" offset="100%"></stop>
        </linearGradient>
    </defs>
    <g id="Page-1" stroke="none" stroke-width="1" fill="none" fill-rule="evenodd">
        <g id="Group-7">
            <g id="Group-3">
                <mask id="mask-2" fill="white">
                    <use xlink:href="#path-1"></use>
                </mask>
                <use id="Rectangle" fill="#FFFFFF" xlink:href="#path-1"></use>
            </g>
            <g id="Group" transform="translate(5.703837, 11.764706)">
                <path d="M8.31577057,16.4705882 C9.4528274,16.4705882 10.3745941,15.5488215 10.3745941,14.4117647 C10.3745941,13.2747079 9.4528274,12.3529412 8.31577057,12.3529412 L8.02165292,12.3529412 C5.74753924,12.3529412 3.90400586,10.5094078 3.90400586,8.23529412 C3.90400586,5.96118044 5.74753924,4.11764706 8.02165292,4.11764706 C10.2957666,4.11764706 12.1393,5.96118044 12.1393,8.23529412 L12.1393,14.3720703 C12.1393,15.5488215 13.0610667,16.4705882 14.1981235,16.4705882 C15.3351803,16.4705882 16.256947,15.5488215 16.256947,14.4117647 L16.256947,8.23529412 C16.256947,3.68706677 12.5698803,0 8.02165292,0 C3.47342557,0 -0.213641199,3.68706677 -0.213641199,8.23529412 C-0.213641199,12.7835215 3.47342557,16.4705882 8.02165292,16.4703275 L8.31577057,16.4705882 Z" id="Oval-2" fill="url(#linearGradient-3)"></path>
                <path d="M7.99986643,12.3529412 C9.09481005,12.3529412 9.98243723,13.2747079 9.98243723,14.4117647 C9.98243723,15.5488215 9.09481005,16.4705882 7.99986643,16.4705882 L7.71664203,16.4703275 C3.33686754,16.4705882 -0.213641199,12.7835215 -0.213641199,8.23529412 C-0.213641199,3.68706677 3.33686754,0 7.71664203,0 C4.43181116,0 1.76892961,2.76530007 1.76892961,6.17647059 C1.76892961,9.5876411 4.43181116,12.3529412 7.71664203,12.3529412 L7.99986643,12.3529412 Z" id="Oval-2-Copy-2" fill="url(#linearGradient-4)"></path>
                <path d="M16.256947,8.37467881 C16.256947,5.04896495 13.4477533,2.35294118 9.98243723,2.35294118 C6.51712115,2.35294118 3.70792743,5.04896495 3.70792743,8.37467881 C3.70792743,6.15753624 5.58072325,4.36018705 7.89093396,4.36018705 C10.2011447,4.36018705 12.0739405,6.15753624 12.0739405,8.37467881 L12.0739405,14.3577165 C12.0739405,15.5049877 13.0103384,16.4036623 14.1654438,16.4036623 C15.3205491,16.4036623 16.256947,15.5049877 16.256947,14.3964164 L16.256947,8.37467881 M7.89093396,16.4034082 L8.18972015,16.4038513 M8.18972015,12.3891706 L7.89093396,12.3891706" id="Oval-2-Copy" fill="url(#linearGradient-5)"></path>
            </g>
            <g id="Group-Copy" transform="translate(26.279528, 20.000000) scale(-1, 1) translate(-26.279528, -20.000000) translate(18.049252, 11.764706)">
                <path d="M8.52941176,16.4705882 C9.6664686,16.4705882 10.5882353,15.5488215 10.5882353,14.4117647 C10.5882353,13.2747079 9.6664686,12.3529412 8.52941176,12.3529412 L8.23529412,12.3529412 C5.96118044,12.3529412 4.11764706,10.5094078 4.11764706,8.23529412 C4.11764706,5.96118044 5.96118044,4.11764706 8.23529412,4.11764706 C10.5094078,4.11764706 12.3529412,5.96118044 12.3529412,8.23529412 L12.3529412,14.3720703 C12.3529412,15.5488215 13.2747079,16.4705882 14.4117647,16.4705882 C15.5488215,16.4705882 16.4705882,15.5488215 16.4705882,14.4117647 L16.4705882,8.23529412 C16.4705882,3.68706677 12.7835215,0 8.23529412,0 C3.68706677,0 0,3.68706677 0,8.23529412 C0,12.7835215 3.68706677,16.4705882 8.23529412,16.4703275 L8.52941176,16.4705882 Z" id="Oval-2" fill="url(#linearGradient-3)"></path>
                <path d="M8.21350763,12.3529412 C9.30845125,12.3529412 10.1960784,13.2747079 10.1960784,14.4117647 C10.1960784,15.5488215 9.30845125,16.4705882 8.21350763,16.4705882 L7.93028322,16.4703275 C3.55050874,16.4705882 0,12.7835215 0,8.23529412 C0,3.68706677 3.55050874,0 7.93028322,0 C4.64545236,0 1.98257081,2.76530007 1.98257081,6.17647059 C1.98257081,9.5876411 4.64545236,12.3529412 7.93028322,12.3529412 L8.21350763,12.3529412 Z" id="Oval-2-Copy-2" fill="url(#linearGradient-4)"></path>
                <path d="M16.4705882,8.37467881 C16.4705882,5.04896495 13.6613945,2.35294118 10.1960784,2.35294118 C6.73076235,2.35294118 3.92156863,5.04896495 3.92156863,8.37467881 C3.92156863,6.15753624 5.79436445,4.36018705 8.10457516,4.36018705 C10.4147859,4.36018705 12.2875817,6.15753624 12.2875817,8.37467881 L12.2875817,14.3577165 C12.2875817,15.5049877 13.2239796,16.4036623 14.379085,16.4036623 C15.5341903,16.4036623 16.4705882,15.5049877 16.4705882,14.3964164 L16.4705882,8.37467881 M8.10457516,16.4034082 L8.40336134,16.4038513 M8.40336134,12.3891706 L8.10457516,12.3891706" id="Oval-2-Copy" fill="url(#linearGradient-5)"></path>
            </g>
        </g>
    </g>
</svg>