<?xml version="1.0" encoding="UTF-8"?>
<svg width="70px" height="19px" viewBox="0 0 70 19" version="1.1" xmlns="http://www.w3.org/2000/svg" xmlns:xlink="http://www.w3.org/1999/xlink">
    <title>munqs</title>
    <g id="Page-1" stroke="none" stroke-width="1" fill="none" fill-rule="evenodd">
        <path d="M3.96331034,13.4868966 L3.96331034,3.40689655 C4.19503448,3.3737931 4.43503448,3.34482759 4.68331034,3.32 C4.93158621,3.29517241 5.17158621,3.28275862 5.40331034,3.28275862 C6.14813793,3.28275862 6.67365517,3.53103448 6.97986207,4.02758621 C7.28606897,4.52413793 7.43917241,5.36827586 7.43917241,6.56 L7.43917241,13.4868966 L11.1384828,13.4868966 L11.1384828,6.36137931 C11.1384828,5.88137931 11.121931,5.43034483 11.0888276,5.00827586 C11.0557241,4.5862069 10.9812414,4.18482759 10.8653793,3.80413793 C11.0971034,3.65517241 11.3908966,3.53103448 11.7467586,3.43172414 C12.1026207,3.33241379 12.3798621,3.28275862 12.5784828,3.28275862 C13.3233103,3.28275862 13.8488276,3.53103448 14.1550345,4.02758621 C14.4612414,4.52413793 14.6143448,5.36827586 14.6143448,6.56 L14.6143448,13.4868966 L18.3136552,13.4868966 L18.3136552,6.11310345 C18.3136552,5.21931034 18.2391724,4.40827586 18.0902069,3.68 C17.9412414,2.95172414 17.6681379,2.32275862 17.2708966,1.79310345 C16.8736552,1.26344828 16.3398621,0.853793103 15.6695172,0.564137931 C14.9991724,0.274482759 14.1426207,0.129655172 13.0998621,0.129655172 C12.5205517,0.129655172 11.8874483,0.237241379 11.2005517,0.452413793 C10.5136552,0.667586207 9.90537931,0.965517241 9.37572414,1.3462069 C8.99503448,1.01517241 8.51089655,0.729655172 7.92331034,0.489655172 C7.33572414,0.249655172 6.5702069,0.129655172 5.62675862,0.129655172 C5.14675862,0.129655172 4.65848276,0.150344828 4.16193103,0.191724138 C3.66537931,0.233103448 3.18124138,0.291034483 2.70951724,0.365517241 C2.2377931,0.44 1.79089655,0.522758621 1.36882759,0.613793103 C0.946758621,0.704827586 0.578482759,0.791724138 0.264,0.874482759 L0.264,13.4868966 L3.96331034,13.4868966 Z M25.6998621,13.7848276 C26.7922759,13.7848276 27.8350345,13.7062069 28.8281379,13.5489655 C29.8212414,13.3917241 30.6322759,13.222069 31.2612414,13.04 L31.2612414,13.04 L31.2612414,0.427586207 L27.561931,0.427586207 L27.561931,10.5075862 C27.3302069,10.5406897 27.0653793,10.5696552 26.7674483,10.5944828 C26.4695172,10.6193103 26.1881379,10.6317241 25.9233103,10.6317241 C25.0626207,10.6317241 24.4750345,10.3668966 24.1605517,9.83724138 C23.846069,9.30758621 23.6888276,8.44689655 23.6888276,7.25517241 L23.6888276,7.25517241 L23.6888276,0.427586207 L19.9895172,0.427586207 L19.9895172,7.70206897 C19.9895172,8.59586207 20.0805517,9.41517241 20.2626207,10.16 C20.4446897,10.9048276 20.7508966,11.5462069 21.1812414,12.0841379 C21.6115862,12.622069 22.1950345,13.04 22.9315862,13.337931 C23.6681379,13.6358621 24.5908966,13.7848276 25.6998621,13.7848276 Z M36.8846897,13.4868966 L36.8846897,3.40689655 C37.1164138,3.3737931 37.3812414,3.34482759 37.6791724,3.32 C37.9771034,3.29517241 38.2584828,3.28275862 38.5233103,3.28275862 C39.384,3.28275862 39.9715862,3.53103448 40.286069,4.02758621 C40.6005517,4.52413793 40.7577931,5.36827586 40.7577931,6.56 L40.7577931,13.4868966 L44.4571034,13.4868966 L44.4571034,6.11310345 C44.4571034,5.21931034 44.366069,4.40827586 44.184,3.68 C44.001931,2.95172414 43.6957241,2.32275862 43.2653793,1.79310345 C42.8350345,1.26344828 42.2515862,0.853793103 41.5150345,0.564137931 C40.7784828,0.274482759 39.8557241,0.129655172 38.7467586,0.129655172 C37.6543448,0.129655172 36.6115862,0.208275862 35.6184828,0.365517241 C34.6253793,0.522758621 33.8143448,0.692413793 33.1853793,0.874482759 L33.1853793,13.4868966 L36.8846897,13.4868966 Z M58.2943448,18.08 L58.2943448,0.874482759 C57.9633103,0.775172414 57.5826207,0.68 57.1522759,0.588965517 C56.721931,0.497931034 56.2708966,0.419310345 55.7991724,0.353103448 C55.3274483,0.286896552 54.8474483,0.233103448 54.3591724,0.191724138 C53.8708966,0.150344828 53.4033103,0.129655172 52.9564138,0.129655172 C51.8805517,0.129655172 50.9205517,0.295172414 50.0764138,0.626206897 C49.2322759,0.957241379 48.5205517,1.42482759 47.9412414,2.02896552 C47.361931,2.63310345 46.9191724,3.35310345 46.6129655,4.18896552 C46.3067586,5.02482759 46.1536552,5.94758621 46.1536552,6.95724138 C46.1536552,9.04275862 46.641931,10.6937931 47.6184828,11.9103448 C48.5950345,13.1268966 50.0102069,13.7351724 51.864,13.7351724 C52.3771034,13.7351724 52.8571034,13.6855172 53.304,13.5862069 C53.7508966,13.4868966 54.1812414,13.3462069 54.5950345,13.1641379 L54.5950345,18.08 L58.2943448,18.08 Z M52.041931,10.6068966 C50.2874483,10.6068966 49.4102069,9.42344828 49.4102069,7.05655172 C49.4102069,5.91448276 49.6667586,5 50.1798621,4.31310345 C50.6929655,3.6262069 51.4543448,3.28275862 52.464,3.28275862 C52.7950345,3.28275862 53.1012414,3.29517241 53.3826207,3.32 C53.664,3.34482759 53.8957241,3.3737931 54.0777931,3.40689655 L54.0777931,3.40689655 L54.0777931,10.0855172 C53.846069,10.2344828 53.544,10.3586207 53.1715862,10.457931 C52.7991724,10.5572414 52.4226207,10.6068966 52.041931,10.6068966 Z M64.4598621,13.8344828 C66.2308966,13.8344828 67.6005517,13.5034483 68.5688276,12.8413793 C69.5371034,12.1793103 70.0212414,11.2027586 70.0212414,9.91172414 C70.0212414,9.36551724 69.9591724,8.88551724 69.8350345,8.47172414 C69.7108966,8.05793103 69.4957241,7.68137931 69.1895172,7.34206897 C68.8833103,7.00275862 68.4653793,6.68827586 67.9357241,6.39862069 C67.406069,6.10896552 66.7357241,5.81517241 65.9246897,5.51724138 C65.5274483,5.36827586 65.2005517,5.23172414 64.944,5.10758621 C64.6874483,4.98344828 64.4846897,4.86758621 64.3357241,4.76 C64.1867586,4.65241379 64.0874483,4.54068966 64.0377931,4.42482759 C63.9881379,4.30896552 63.9633103,4.17655172 63.9633103,4.02758621 C63.9633103,3.38206897 64.5426207,3.05931034 65.7012414,3.05931034 C66.3302069,3.05931034 66.8971034,3.11724138 67.401931,3.23310345 C67.9067586,3.34896552 68.3743448,3.48137931 68.8046897,3.63034483 L68.8046897,3.63034483 L69.4502069,0.750344828 C69.0198621,0.584827586 68.4405517,0.431724138 67.7122759,0.291034483 C66.984,0.150344828 66.2226207,0.08 65.4281379,0.08 C63.8391724,0.08 62.5895172,0.435862069 61.6791724,1.14758621 C60.7688276,1.85931034 60.3136552,2.82758621 60.3136552,4.05241379 C60.3136552,4.68137931 60.4046897,5.21931034 60.5867586,5.6662069 C60.7688276,6.11310345 61.0253793,6.49793103 61.3564138,6.82068966 C61.6874483,7.14344828 62.0888276,7.42068966 62.5605517,7.65241379 C63.0322759,7.88413793 63.5577931,8.10758621 64.1371034,8.32275862 C64.881931,8.60413793 65.4364138,8.85655172 65.8005517,9.08 C66.1646897,9.30344828 66.3467586,9.56413793 66.3467586,9.86206897 C66.3467586,10.2427586 66.206069,10.4993103 65.9246897,10.6317241 C65.6433103,10.7641379 65.1633103,10.8303448 64.4846897,10.8303448 C63.8391724,10.8303448 63.1853793,10.76 62.5233103,10.6193103 C61.8612414,10.4786207 61.2157241,10.2841379 60.5867586,10.0358621 L60.5867586,10.0358621 L59.966069,13.04 C60.264,13.1724138 60.7977931,13.337931 61.5674483,13.5365517 C62.3371034,13.7351724 63.3012414,13.8344828 64.4598621,13.8344828 Z" id="munqs" fill="#FFFFFF" fill-rule="nonzero"></path>
    </g>
</svg>