<?xml version="1.0" encoding="UTF-8"?>
<svg width="13px" height="13px" viewBox="0 0 13 13" version="1.1" xmlns="http://www.w3.org/2000/svg" xmlns:xlink="http://www.w3.org/1999/xlink">
    <g id="Artboard" transform="translate(-5.000000, -5.000000)" fill="#131C4E" fill-rule="nonzero">
        <path d="M18.1708514,10.1708514 L12.4565656,10.1708514 L12.4565656,4.45656564 C12.4565656,3.8244285 11.9458456,3.3137085 11.3137085,3.3137085 C10.6815714,3.3137085 10.1708514,3.8244285 10.1708514,4.45656564 L10.1708514,10.1708514 L4.45656564,10.1708514 C3.8244285,10.1708514 3.3137085,10.6815714 3.3137085,11.3137085 C3.3137085,11.9458456 3.8244285,12.4565656 4.45656564,12.4565656 L10.1708514,12.4565656 L10.1708514,18.1708514 C10.1708514,18.8029885 10.6815714,19.3137085 11.3137085,19.3137085 C11.9458456,19.3137085 12.4565656,18.8029885 12.4565656,18.1708514 L12.4565656,12.4565656 L18.1708514,12.4565656 C18.8029885,12.4565656 19.3137085,11.9458456 19.3137085,11.3137085 C19.3137085,10.6815714 18.8029885,10.1708514 18.1708514,10.1708514 Z" id="Fill-2" transform="translate(11.313708, 11.313708) rotate(45.000000) translate(-11.313708, -11.313708) "></path>
    </g>
</svg>
